<svg id="Layer_1" data-name="Layer 1" xmlns="http://www.w3.org/2000/svg" viewBox="0 0 500 500"><defs><style>.cls-1{fill:#fcd32b;}.cls-2{fill:#efad0a;}.cls-3{fill:none;stroke:#000;stroke-linecap:round;stroke-linejoin:round;stroke-width:15px;}</style></defs><title>sun</title><circle class="cls-1" cx="250" cy="250" r="169.01"/><path class="cls-2" d="M250,383A169,169,0,0,1,82,232a169,169,0,1,0,336.1,0A169,169,0,0,1,250,383Z"/><circle class="cls-3" cx="250" cy="250" r="169.01"/><path class="cls-3" d="M156.08,216.31s27.43-29.31,54.86,0"/><path class="cls-3" d="M343.92,216.31s-27.43-29.31-54.86,0"/><path class="cls-3" d="M193.36,257.33s48.13,53.44,106.82,0"/><line class="cls-3" x1="250" y1="48.76" x2="250" y2="7.75"/><line class="cls-3" x1="337.21" y1="57.34" x2="349.9" y2="29.31"/><line class="cls-3" x1="150.1" y1="470.69" x2="162.79" y2="442.66"/><line class="cls-3" x1="447.9" y1="175.44" x2="476.69" y2="164.59"/><line class="cls-3" x1="23.31" y1="335.41" x2="52.1" y2="324.56"/><line class="cls-3" x1="442.66" y1="337.21" x2="470.69" y2="349.9"/><line class="cls-3" x1="29.31" y1="150.1" x2="57.34" y2="162.79"/><line class="cls-3" x1="324.56" y1="447.9" x2="335.41" y2="476.69"/><line class="cls-3" x1="164.59" y1="23.31" x2="175.44" y2="52.1"/><line class="cls-3" x1="250" y1="451.24" x2="250" y2="492.25"/><line class="cls-3" x1="451.24" y1="250" x2="492.25" y2="250"/><line class="cls-3" x1="48.76" y1="250" x2="7.75" y2="250"/><line class="cls-3" x1="392.29" y1="392.29" x2="421.29" y2="421.29"/><line class="cls-3" x1="107.71" y1="107.71" x2="78.71" y2="78.71"/><line class="cls-3" x1="107.71" y1="392.29" x2="78.71" y2="421.29"/><line class="cls-3" x1="392.29" y1="107.71" x2="421.29" y2="78.71"/></svg>